<svg width="20" height="19" viewBox="0 0 20 19" fill="none" xmlns="http://www.w3.org/2000/svg">
<g id="open_in_new">
<mask id="mask0_20_7" style="mask-type:alpha" maskUnits="userSpaceOnUse" x="0" y="0" width="20" height="19">
<rect id="Bounding box" x="0.5" width="19" height="19" fill="#D9D9D9"/>
</mask>
<g mask="url(#mask0_20_7)">
<path id="open_in_new_2" d="M4.70195 16.2291C4.30205 16.2291 3.96356 16.0906 3.68648 15.8135C3.40939 15.5364 3.27085 15.1979 3.27085 14.7981V4.20195C3.27085 3.80205 3.40939 3.46356 3.68648 3.18648C3.96356 2.90939 4.30205 2.77085 4.70195 2.77085H9.69549V3.95833H4.70195C4.64104 3.95833 4.58521 3.98371 4.53445 4.03445C4.48371 4.08521 4.45833 4.14104 4.45833 4.20195V14.7981C4.45833 14.859 4.48371 14.9148 4.53445 14.9655C4.58521 15.0163 4.64104 15.0417 4.70195 15.0417H15.2981C15.359 15.0417 15.4148 15.0163 15.4655 14.9655C15.5163 14.9148 15.5417 14.859 15.5417 14.7981V9.80452H16.7291V14.7981C16.7291 15.1979 16.5906 15.5364 16.3135 15.8135C16.0364 16.0906 15.6979 16.2291 15.2981 16.2291H4.70195ZM8.19439 12.1399L7.36011 11.3056L14.7074 3.95833H11.5833V2.77085H16.7291V7.91667H15.5417V4.79261L8.19439 12.1399Z" fill="#F1FAEE"/>
</g>
</g>
</svg>
